<svg id="visual" viewBox="0 0 900 600" width="900" height="600" xmlns="http://www.w3.org/2000/svg" xmlns:xlink="http://www.w3.org/1999/xlink" version="1.1"><rect x="0" y="0" width="900" height="600" fill="#001220"></rect><defs><linearGradient id="grad1_0" x1="33.3%" y1="0%" x2="100%" y2="100%"><stop offset="20%" stop-color="#fbae3c" stop-opacity="1"></stop><stop offset="80%" stop-color="#fbae3c" stop-opacity="1"></stop></linearGradient></defs><defs><linearGradient id="grad1_1" x1="33.3%" y1="0%" x2="100%" y2="100%"><stop offset="20%" stop-color="#fbae3c" stop-opacity="1"></stop><stop offset="80%" stop-color="#f48350" stop-opacity="1"></stop></linearGradient></defs><defs><linearGradient id="grad1_2" x1="33.3%" y1="0%" x2="100%" y2="100%"><stop offset="20%" stop-color="#d96162" stop-opacity="1"></stop><stop offset="80%" stop-color="#f48350" stop-opacity="1"></stop></linearGradient></defs><defs><linearGradient id="grad1_3" x1="33.3%" y1="0%" x2="100%" y2="100%"><stop offset="20%" stop-color="#d96162" stop-opacity="1"></stop><stop offset="80%" stop-color="#af4b6d" stop-opacity="1"></stop></linearGradient></defs><defs><linearGradient id="grad1_4" x1="33.3%" y1="0%" x2="100%" y2="100%"><stop offset="20%" stop-color="#7c3e6b" stop-opacity="1"></stop><stop offset="80%" stop-color="#af4b6d" stop-opacity="1"></stop></linearGradient></defs><defs><linearGradient id="grad1_5" x1="33.3%" y1="0%" x2="100%" y2="100%"><stop offset="20%" stop-color="#7c3e6b" stop-opacity="1"></stop><stop offset="80%" stop-color="#49335c" stop-opacity="1"></stop></linearGradient></defs><defs><linearGradient id="grad1_6" x1="33.3%" y1="0%" x2="100%" y2="100%"><stop offset="20%" stop-color="#1d2540" stop-opacity="1"></stop><stop offset="80%" stop-color="#49335c" stop-opacity="1"></stop></linearGradient></defs><defs><linearGradient id="grad1_7" x1="33.3%" y1="0%" x2="100%" y2="100%"><stop offset="20%" stop-color="#1d2540" stop-opacity="1"></stop><stop offset="80%" stop-color="#001220" stop-opacity="1"></stop></linearGradient></defs><defs><linearGradient id="grad2_0" x1="0%" y1="0%" x2="66.7%" y2="100%"><stop offset="20%" stop-color="#fbae3c" stop-opacity="1"></stop><stop offset="80%" stop-color="#fbae3c" stop-opacity="1"></stop></linearGradient></defs><defs><linearGradient id="grad2_1" x1="0%" y1="0%" x2="66.7%" y2="100%"><stop offset="20%" stop-color="#f48350" stop-opacity="1"></stop><stop offset="80%" stop-color="#fbae3c" stop-opacity="1"></stop></linearGradient></defs><defs><linearGradient id="grad2_2" x1="0%" y1="0%" x2="66.7%" y2="100%"><stop offset="20%" stop-color="#f48350" stop-opacity="1"></stop><stop offset="80%" stop-color="#d96162" stop-opacity="1"></stop></linearGradient></defs><defs><linearGradient id="grad2_3" x1="0%" y1="0%" x2="66.7%" y2="100%"><stop offset="20%" stop-color="#af4b6d" stop-opacity="1"></stop><stop offset="80%" stop-color="#d96162" stop-opacity="1"></stop></linearGradient></defs><defs><linearGradient id="grad2_4" x1="0%" y1="0%" x2="66.7%" y2="100%"><stop offset="20%" stop-color="#af4b6d" stop-opacity="1"></stop><stop offset="80%" stop-color="#7c3e6b" stop-opacity="1"></stop></linearGradient></defs><defs><linearGradient id="grad2_5" x1="0%" y1="0%" x2="66.7%" y2="100%"><stop offset="20%" stop-color="#49335c" stop-opacity="1"></stop><stop offset="80%" stop-color="#7c3e6b" stop-opacity="1"></stop></linearGradient></defs><defs><linearGradient id="grad2_6" x1="0%" y1="0%" x2="66.7%" y2="100%"><stop offset="20%" stop-color="#49335c" stop-opacity="1"></stop><stop offset="80%" stop-color="#1d2540" stop-opacity="1"></stop></linearGradient></defs><defs><linearGradient id="grad2_7" x1="0%" y1="0%" x2="66.7%" y2="100%"><stop offset="20%" stop-color="#001220" stop-opacity="1"></stop><stop offset="80%" stop-color="#1d2540" stop-opacity="1"></stop></linearGradient></defs><g transform="translate(900, 0)"><path d="M0 324.5C-35 323.3 -69.9 322.1 -100.3 308.6C-130.6 295.2 -156.3 269.5 -178.1 245.1C-199.9 220.8 -217.6 197.7 -240.3 174.6C-262.9 151.5 -290.4 128.3 -305.3 99.2C-320.1 70.1 -322.3 35 -324.5 0L0 0Z" fill="#0c1c30"></path><path d="M0 283.9C-30.6 282.9 -61.2 281.8 -87.7 270C-114.3 258.3 -136.8 235.8 -155.8 214.5C-174.9 193.2 -190.4 173 -210.2 152.8C-230.1 132.5 -254.1 112.3 -267.1 86.8C-280.1 61.3 -282 30.7 -283.9 0L0 0Z" fill="#312c4f"></path><path d="M0 243.4C-26.2 242.5 -52.4 241.5 -75.2 231.5C-98 221.4 -117.3 202.1 -133.6 183.8C-149.9 165.6 -163.2 148.3 -180.2 130.9C-197.2 113.6 -217.8 96.2 -229 74.4C-240.1 52.6 -241.7 26.3 -243.4 0L0 0Z" fill="#623965"></path><path d="M0 202.8C-21.9 202.1 -43.7 201.3 -62.7 192.9C-81.6 184.5 -97.7 168.4 -111.3 153.2C-124.9 138 -136 123.6 -150.2 109.1C-164.3 94.7 -181.5 80.2 -190.8 62C-200.1 43.8 -201.4 21.9 -202.8 0L0 0Z" fill="#96446e"></path><path d="M0 162.2C-17.5 161.6 -35 161 -50.1 154.3C-65.3 147.6 -78.2 134.8 -89 122.6C-99.9 110.4 -108.8 98.8 -120.1 87.3C-131.5 75.7 -145.2 64.1 -152.6 49.6C-160.1 35 -161.2 17.5 -162.2 0L0 0Z" fill="#c55469"></path><path d="M0 121.7C-13.1 121.2 -26.2 120.8 -37.6 115.7C-49 110.7 -58.6 101.1 -66.8 91.9C-74.9 82.8 -81.6 74.1 -90.1 65.5C-98.6 56.8 -108.9 48.1 -114.5 37.2C-120.1 26.3 -120.9 13.1 -121.7 0L0 0Z" fill="#e9705a"></path><path d="M0 81.1C-8.7 80.8 -17.5 80.5 -25.1 77.2C-32.7 73.8 -39.1 67.4 -44.5 61.3C-50 55.2 -54.4 49.4 -60.1 43.6C-65.7 37.9 -72.6 32.1 -76.3 24.8C-80 17.5 -80.6 8.8 -81.1 0L0 0Z" fill="#fa9845"></path><path d="M0 40.6C-4.4 40.4 -8.7 40.3 -12.5 38.6C-16.3 36.9 -19.5 33.7 -22.3 30.6C-25 27.6 -27.2 24.7 -30 21.8C-32.9 18.9 -36.3 16 -38.2 12.4C-40 8.8 -40.3 4.4 -40.6 0L0 0Z" fill="#fbae3c"></path></g><g transform="translate(0, 600)"><path d="M0 -324.5C35.5 -324 71 -323.5 100.3 -308.6C129.6 -293.8 152.6 -264.6 174 -239.5C195.3 -214.4 214.9 -193.4 234.6 -170.5C254.3 -147.5 274.1 -122.7 289.1 -93.9C304.1 -65.2 314.3 -32.6 324.5 0L0 0Z" fill="#0c1c30"></path><path d="M0 -283.9C31.1 -283.5 62.1 -283 87.7 -270C113.4 -257 133.6 -231.5 152.2 -209.5C170.9 -187.6 188.1 -169.2 205.3 -149.2C222.5 -129.1 239.9 -107.3 253 -82.2C266.1 -57.1 275 -28.5 283.9 0L0 0Z" fill="#312c4f"></path><path d="M0 -243.4C26.6 -243 53.2 -242.6 75.2 -231.5C97.2 -220.3 114.5 -198.4 130.5 -179.6C146.5 -160.8 161.2 -145 176 -127.8C190.7 -110.6 205.6 -92 216.8 -70.5C228.1 -48.9 235.7 -24.5 243.4 0L0 0Z" fill="#623965"></path><path d="M0 -202.8C22.2 -202.5 44.4 -202.2 62.7 -192.9C81 -183.6 95.4 -165.4 108.7 -149.7C122.1 -134 134.3 -120.9 146.6 -106.5C158.9 -92.2 171.3 -76.7 180.7 -58.7C190.1 -40.8 196.4 -20.4 202.8 0L0 0Z" fill="#96446e"></path><path d="M0 -162.2C17.7 -162 35.5 -161.7 50.1 -154.3C64.8 -146.9 76.3 -132.3 87 -119.7C97.7 -107.2 107.5 -96.7 117.3 -85.2C127.2 -73.8 137.1 -61.3 144.6 -47C152.1 -32.6 157.2 -16.3 162.2 0L0 0Z" fill="#c55469"></path><path d="M0 -121.7C13.3 -121.5 26.6 -121.3 37.6 -115.7C48.6 -110.2 57.2 -99.2 65.2 -89.8C73.2 -80.4 80.6 -72.5 88 -63.9C95.4 -55.3 102.8 -46 108.4 -35.2C114 -24.5 117.9 -12.2 121.7 0L0 0Z" fill="#e9705a"></path><path d="M0 -81.1C8.9 -81 17.7 -80.9 25.1 -77.2C32.4 -73.4 38.2 -66.1 43.5 -59.9C48.8 -53.6 53.7 -48.3 58.7 -42.6C63.6 -36.9 68.5 -30.7 72.3 -23.5C76 -16.3 78.6 -8.2 81.1 0L0 0Z" fill="#fa9845"></path><path d="M0 -40.6C4.4 -40.5 8.9 -40.4 12.5 -38.6C16.2 -36.7 19.1 -33.1 21.7 -29.9C24.4 -26.8 26.9 -24.2 29.3 -21.3C31.8 -18.4 34.3 -15.3 36.1 -11.7C38 -8.2 39.3 -4.1 40.6 0L0 0Z" fill="#fbae3c"></path></g></svg>