<?xml version="1.0" standalone="no"?>
<svg xmlns:xlink="http://www.w3.org/1999/xlink" id="wave" style="transform:rotate(0deg); transition: 0.3s" viewBox="0 0 1440 290" version="1.1" xmlns="http://www.w3.org/2000/svg"><defs><linearGradient id="sw-gradient-0" x1="0" x2="0" y1="1" y2="0"><stop stop-color="rgba(193.847, 47.123, 0, 1)" offset="0%"/><stop stop-color="rgba(107.329, 88.821, 47.908, 1)" offset="100%"/></linearGradient></defs><path style="transform:translate(0, 0px); opacity:1" fill="url(#sw-gradient-0)" d="M0,232L80,198.2C160,164,320,97,480,91.8C640,87,800,145,960,174C1120,203,1280,203,1440,174C1600,145,1760,87,1920,72.5C2080,58,2240,87,2400,82.2C2560,77,2720,39,2880,33.8C3040,29,3200,58,3360,58C3520,58,3680,29,3840,53.2C4000,77,4160,155,4320,198.2C4480,242,4640,251,4800,251.3C4960,251,5120,242,5280,198.2C5440,155,5600,77,5760,82.2C5920,87,6080,174,6240,183.7C6400,193,6560,126,6720,111.2C6880,97,7040,135,7200,145C7360,155,7520,135,7680,125.7C7840,116,8000,116,8160,106.3C8320,97,8480,77,8640,91.8C8800,106,8960,155,9120,164.3C9280,174,9440,145,9600,140.2C9760,135,9920,155,10080,154.7C10240,155,10400,135,10560,149.8C10720,164,10880,213,11040,232C11200,251,11360,242,11440,236.8L11520,232L11520,290L11440,290C11360,290,11200,290,11040,290C10880,290,10720,290,10560,290C10400,290,10240,290,10080,290C9920,290,9760,290,9600,290C9440,290,9280,290,9120,290C8960,290,8800,290,8640,290C8480,290,8320,290,8160,290C8000,290,7840,290,7680,290C7520,290,7360,290,7200,290C7040,290,6880,290,6720,290C6560,290,6400,290,6240,290C6080,290,5920,290,5760,290C5600,290,5440,290,5280,290C5120,290,4960,290,4800,290C4640,290,4480,290,4320,290C4160,290,4000,290,3840,290C3680,290,3520,290,3360,290C3200,290,3040,290,2880,290C2720,290,2560,290,2400,290C2240,290,2080,290,1920,290C1760,290,1600,290,1440,290C1280,290,1120,290,960,290C800,290,640,290,480,290C320,290,160,290,80,290L0,290Z"/><defs><linearGradient id="sw-gradient-1" x1="0" x2="0" y1="1" y2="0"><stop stop-color="rgba(216.615, 52.658, 0, 1)" offset="0%"/><stop stop-color="rgba(180.186, 139.292, 48.893, 1)" offset="100%"/></linearGradient></defs><path style="transform:translate(0, 50px); opacity:0.9" fill="url(#sw-gradient-1)" d="M0,261L80,261C160,261,320,261,480,241.7C640,222,800,184,960,159.5C1120,135,1280,126,1440,140.2C1600,155,1760,193,1920,174C2080,155,2240,77,2400,38.7C2560,0,2720,0,2880,14.5C3040,29,3200,58,3360,72.5C3520,87,3680,87,3840,106.3C4000,126,4160,164,4320,193.3C4480,222,4640,242,4800,246.5C4960,251,5120,242,5280,212.7C5440,184,5600,135,5760,116C5920,97,6080,106,6240,106.3C6400,106,6560,97,6720,77.3C6880,58,7040,29,7200,33.8C7360,39,7520,77,7680,120.8C7840,164,8000,213,8160,203C8320,193,8480,126,8640,91.8C8800,58,8960,58,9120,77.3C9280,97,9440,135,9600,140.2C9760,145,9920,116,10080,87C10240,58,10400,29,10560,53.2C10720,77,10880,155,11040,154.7C11200,155,11360,77,11440,38.7L11520,0L11520,290L11440,290C11360,290,11200,290,11040,290C10880,290,10720,290,10560,290C10400,290,10240,290,10080,290C9920,290,9760,290,9600,290C9440,290,9280,290,9120,290C8960,290,8800,290,8640,290C8480,290,8320,290,8160,290C8000,290,7840,290,7680,290C7520,290,7360,290,7200,290C7040,290,6880,290,6720,290C6560,290,6400,290,6240,290C6080,290,5920,290,5760,290C5600,290,5440,290,5280,290C5120,290,4960,290,4800,290C4640,290,4480,290,4320,290C4160,290,4000,290,3840,290C3680,290,3520,290,3360,290C3200,290,3040,290,2880,290C2720,290,2560,290,2400,290C2240,290,2080,290,1920,290C1760,290,1600,290,1440,290C1280,290,1120,290,960,290C800,290,640,290,480,290C320,290,160,290,80,290L0,290Z"/><defs><linearGradient id="sw-gradient-2" x1="0" x2="0" y1="1" y2="0"><stop stop-color="rgba(173.356, 55.522, 17.678, 1)" offset="0%"/><stop stop-color="rgba(230.276, 163.435, 15.682, 1)" offset="100%"/></linearGradient></defs><path style="transform:translate(0, 100px); opacity:0.8" fill="url(#sw-gradient-2)" d="M0,0L80,24.2C160,48,320,97,480,125.7C640,155,800,164,960,140.2C1120,116,1280,58,1440,58C1600,58,1760,116,1920,125.7C2080,135,2240,97,2400,106.3C2560,116,2720,174,2880,174C3040,174,3200,116,3360,96.7C3520,77,3680,97,3840,101.5C4000,106,4160,97,4320,82.2C4480,68,4640,48,4800,38.7C4960,29,5120,29,5280,29C5440,29,5600,29,5760,33.8C5920,39,6080,48,6240,67.7C6400,87,6560,116,6720,125.7C6880,135,7040,126,7200,125.7C7360,126,7520,135,7680,154.7C7840,174,8000,203,8160,212.7C8320,222,8480,213,8640,183.7C8800,155,8960,106,9120,87C9280,68,9440,77,9600,82.2C9760,87,9920,87,10080,82.2C10240,77,10400,68,10560,87C10720,106,10880,155,11040,149.8C11200,145,11360,87,11440,58L11520,29L11520,290L11440,290C11360,290,11200,290,11040,290C10880,290,10720,290,10560,290C10400,290,10240,290,10080,290C9920,290,9760,290,9600,290C9440,290,9280,290,9120,290C8960,290,8800,290,8640,290C8480,290,8320,290,8160,290C8000,290,7840,290,7680,290C7520,290,7360,290,7200,290C7040,290,6880,290,6720,290C6560,290,6400,290,6240,290C6080,290,5920,290,5760,290C5600,290,5440,290,5280,290C5120,290,4960,290,4800,290C4640,290,4480,290,4320,290C4160,290,4000,290,3840,290C3680,290,3520,290,3360,290C3200,290,3040,290,2880,290C2720,290,2560,290,2400,290C2240,290,2080,290,1920,290C1760,290,1600,290,1440,290C1280,290,1120,290,960,290C800,290,640,290,480,290C320,290,160,290,80,290L0,290Z"/><defs><linearGradient id="sw-gradient-3" x1="0" x2="0" y1="1" y2="0"><stop stop-color="rgba(218.892, 53.211, 0, 1)" offset="0%"/><stop stop-color="rgba(255, 175.574, 0, 1)" offset="100%"/></linearGradient></defs><path style="transform:translate(0, 150px); opacity:0.7" fill="url(#sw-gradient-3)" d="M0,145L80,135.3C160,126,320,106,480,91.8C640,77,800,68,960,72.5C1120,77,1280,97,1440,125.7C1600,155,1760,193,1920,183.7C2080,174,2240,116,2400,87C2560,58,2720,58,2880,67.7C3040,77,3200,97,3360,116C3520,135,3680,155,3840,140.2C4000,126,4160,77,4320,82.2C4480,87,4640,145,4800,183.7C4960,222,5120,242,5280,212.7C5440,184,5600,106,5760,62.8C5920,19,6080,10,6240,19.3C6400,29,6560,58,6720,67.7C6880,77,7040,68,7200,53.2C7360,39,7520,19,7680,33.8C7840,48,8000,97,8160,101.5C8320,106,8480,68,8640,58C8800,48,8960,68,9120,72.5C9280,77,9440,68,9600,67.7C9760,68,9920,77,10080,77.3C10240,77,10400,68,10560,58C10720,48,10880,39,11040,33.8C11200,29,11360,29,11440,29L11520,29L11520,290L11440,290C11360,290,11200,290,11040,290C10880,290,10720,290,10560,290C10400,290,10240,290,10080,290C9920,290,9760,290,9600,290C9440,290,9280,290,9120,290C8960,290,8800,290,8640,290C8480,290,8320,290,8160,290C8000,290,7840,290,7680,290C7520,290,7360,290,7200,290C7040,290,6880,290,6720,290C6560,290,6400,290,6240,290C6080,290,5920,290,5760,290C5600,290,5440,290,5280,290C5120,290,4960,290,4800,290C4640,290,4480,290,4320,290C4160,290,4000,290,3840,290C3680,290,3520,290,3360,290C3200,290,3040,290,2880,290C2720,290,2560,290,2400,290C2240,290,2080,290,1920,290C1760,290,1600,290,1440,290C1280,290,1120,290,960,290C800,290,640,290,480,290C320,290,160,290,80,290L0,290Z"/></svg>